<svg xmlns="http://www.w3.org/2000/svg" viewBox="0 0 108 72.6201" role="img" aria-label="University of Washington">
  <path fill="#4b2e83" d="M79.259 0.0 C79.259 0.858 79.259 12.238 79.259 13.098 C80.115 13.098 88.465 13.098 88.465 13.098 L78.186 51.349 C78.186 51.349 65.609 0.713 65.431 0.0 C64.744 0.0 52.805 0.0 52.128 0.0 C51.94 0.696 38.332 51.352 38.332 51.352 L28.866 13.098 C28.866 13.098 37.592 13.098 38.451 13.098 C38.451 12.238 38.451 0.858 38.451 0.0 C37.532 0.0 0.919 0.0 0.0 0.0 C0.0 0.858 0.0 12.238 0.0 13.098 C0.851 13.098 8.52 13.098 8.52 13.098 C8.52 13.098 23.223 71.906 23.4 72.62 C24.108 72.62 43.342 72.62 44.04 72.62 C44.223 71.923 53.892 35.166 53.892 35.166 C53.892 35.166 63.079 71.913 63.256 72.62 C63.963 72.62 83.197 72.62 83.894 72.62 C84.08 71.918 99.551 13.098 99.551 13.098 C99.551 13.098 107.15 13.098 108.0 13.098 C108.0 12.238 108.0 0.858 108.0 0.0 C107.092 0.0 80.167 0.0 79.259 0.0 Z"/>
</svg>
